<svg width="93" height="93" viewBox="0 0 93 93" fill="none" xmlns="http://www.w3.org/2000/svg">
<circle cx="47.5" cy="47.5" r="45.5" fill="#F4A261"/>
<circle cx="45.5" cy="45.5" r="45.5" fill="white"/>
<path d="M20.5277 40.529C20.5277 41.126 20.5917 41.609 20.7037 41.964C20.8317 42.319 20.9907 42.706 21.2147 43.125C21.2947 43.254 21.3267 43.383 21.3267 43.496C21.3267 43.657 21.2307 43.818 21.0237 43.98L20.0177 44.657C19.8737 44.754 19.7307 44.802 19.6027 44.802C19.4427 44.802 19.2837 44.721 19.1237 44.576C18.8997 44.334 18.7087 44.076 18.5487 43.818C18.3887 43.544 18.2297 43.238 18.0537 42.867C16.8087 44.35 15.2437 45.092 13.3597 45.092C12.0187 45.092 10.9487 44.705 10.1667 43.931C9.38472 43.157 8.98572 42.125 8.98572 40.835C8.98572 39.465 9.46472 38.352 10.4387 37.514C11.4127 36.676 12.7057 36.256 14.3497 36.256C14.8927 36.256 15.4517 36.304 16.0417 36.385C16.6317 36.466 17.2387 36.595 17.8777 36.74V35.563C17.8777 34.338 17.6227 33.483 17.1277 32.983C16.6167 32.483 15.7547 32.241 14.5257 32.241C13.9667 32.241 13.3927 32.305 12.8017 32.451C12.2107 32.596 11.6367 32.773 11.0777 32.999C10.8227 33.112 10.6307 33.176 10.5187 33.209C10.4067 33.241 10.3267 33.257 10.2637 33.257C10.0397 33.257 9.92872 33.096 9.92872 32.757V31.967C9.92872 31.709 9.96072 31.516 10.0407 31.403C10.1207 31.29 10.2647 31.177 10.4877 31.064C11.0467 30.774 11.7167 30.532 12.4997 30.338C13.2817 30.128 14.1117 30.032 14.9897 30.032C16.8897 30.032 18.2787 30.467 19.1727 31.338C20.0507 32.209 20.4977 33.531 20.4977 35.304V40.528L20.5277 40.529ZM14.0457 42.979C14.5727 42.979 15.1157 42.882 15.6897 42.689C16.2647 42.496 16.7757 42.141 17.2067 41.657C17.4617 41.351 17.6537 41.012 17.7497 40.625C17.8457 40.238 17.9097 39.77 17.9097 39.222V38.545C17.4467 38.432 16.9517 38.335 16.4407 38.271C15.9297 38.207 15.4347 38.174 14.9397 38.174C13.8697 38.174 13.0877 38.384 12.5607 38.819C12.0337 39.254 11.7787 39.867 11.7787 40.673C11.7787 41.431 11.9707 41.995 12.3697 42.382C12.7527 42.786 13.3117 42.979 14.0457 42.979ZM26.8657 44.721C26.5787 44.721 26.3867 44.673 26.2587 44.56C26.1307 44.463 26.0197 44.238 25.9237 43.931L22.1717 31.468C22.0757 31.146 22.0277 30.936 22.0277 30.823C22.0277 30.565 22.1557 30.42 22.4107 30.42H23.9757C24.2787 30.42 24.4867 30.468 24.5987 30.581C24.7267 30.678 24.8217 30.903 24.9177 31.21L27.5997 41.884L30.0897 31.21C30.1697 30.888 30.2657 30.678 30.3927 30.581C30.5207 30.484 30.7437 30.42 31.0317 30.42H32.3087C32.6117 30.42 32.8197 30.468 32.9477 30.581C33.0757 30.678 33.1867 30.903 33.2507 31.21L35.7727 42.013L38.5347 31.21C38.6307 30.888 38.7427 30.678 38.8537 30.581C38.9817 30.484 39.1887 30.42 39.4767 30.42H40.9617C41.2167 30.42 41.3607 30.549 41.3607 30.823C41.3607 30.904 41.3447 30.984 41.3287 31.081C41.3127 31.178 41.2807 31.307 41.2167 31.484L37.3697 43.947C37.2737 44.269 37.1617 44.479 37.0347 44.576C36.9077 44.673 36.6997 44.737 36.4277 44.737H35.0547C34.7517 44.737 34.5437 44.689 34.4157 44.576C34.2877 44.463 34.1767 44.254 34.1127 43.931L31.6387 33.531L29.1807 43.915C29.1007 44.237 29.0047 44.447 28.8777 44.56C28.7497 44.673 28.5267 44.721 28.2387 44.721H26.8657ZM47.3797 45.156C46.5497 45.156 45.7197 45.059 44.9217 44.866C44.1237 44.673 43.5007 44.463 43.0857 44.221C42.8307 44.076 42.6547 43.915 42.5907 43.77C42.5267 43.625 42.4947 43.464 42.4947 43.319V42.497C42.4947 42.158 42.6227 41.997 42.8617 41.997C42.9577 41.997 43.0537 42.013 43.1487 42.045C43.2447 42.077 43.3877 42.142 43.5477 42.206C44.0907 42.448 44.6807 42.641 45.3037 42.77C45.9427 42.899 46.5647 42.963 47.2037 42.963C48.2097 42.963 48.9917 42.786 49.5347 42.431C50.0777 42.076 50.3647 41.56 50.3647 40.899C50.3647 40.448 50.2207 40.077 49.9337 39.77C49.6467 39.464 49.1037 39.19 48.3217 38.932L46.0067 38.206C44.8417 37.835 43.9797 37.287 43.4527 36.561C42.9257 35.852 42.6547 35.062 42.6547 34.223C42.6547 33.546 42.7987 32.949 43.0857 32.433C43.3727 31.917 43.7567 31.466 44.2347 31.111C44.7137 30.74 45.2567 30.466 45.8947 30.273C46.5337 30.081 47.2037 30 47.9067 30C48.2577 30 48.6247 30.016 48.9767 30.064C49.3437 30.112 49.6787 30.177 50.0147 30.241C50.3337 30.322 50.6377 30.402 50.9247 30.499C51.2117 30.596 51.4357 30.692 51.5957 30.789C51.8197 30.918 51.9787 31.047 52.0747 31.192C52.1707 31.321 52.2187 31.498 52.2187 31.724V32.482C52.2187 32.821 52.0907 32.998 51.8517 32.998C51.7237 32.998 51.5167 32.934 51.2447 32.805C50.3347 32.386 49.3127 32.176 48.1797 32.176C47.2697 32.176 46.5517 32.321 46.0567 32.627C45.5617 32.933 45.3067 33.401 45.3067 34.062C45.3067 34.513 45.4667 34.9 45.7857 35.207C46.1047 35.513 46.6957 35.82 47.5417 36.094L49.8087 36.82C50.9577 37.191 51.7887 37.707 52.2827 38.368C52.7767 39.029 53.0167 39.787 53.0167 40.625C53.0167 41.318 52.8727 41.947 52.6017 42.495C52.3147 43.043 51.9307 43.527 51.4367 43.914C50.9417 44.317 50.3507 44.607 49.6647 44.817C48.9437 45.043 48.1937 45.156 47.3797 45.156Z" fill="#252F3E"/>
<path d="M50.3967 52.992C45.1447 56.91 37.5137 58.99 30.9517 58.99C21.7567 58.99 13.4707 55.556 7.21271 49.848C6.71771 49.397 7.16471 48.784 7.75571 49.139C14.5247 53.105 22.8737 55.508 31.5107 55.508C37.3377 55.508 43.7397 54.283 49.6297 51.767C50.5087 51.364 51.2587 52.347 50.3967 52.992ZM52.5837 50.477C51.9127 49.606 48.1457 50.058 46.4377 50.267C45.9267 50.331 45.8467 49.88 46.3097 49.541C49.3107 47.413 54.2437 48.025 54.8187 48.735C55.3937 49.461 54.6587 54.443 51.8497 56.829C51.4187 57.2 51.0037 57.006 51.1947 56.523C51.8337 54.927 53.2547 51.331 52.5837 50.477Z" fill="#FF9900"/>
<path d="M54.764 45.196C54.4933 45.196 54.2647 45.1073 54.078 44.93C53.9007 44.7527 53.812 44.524 53.812 44.244C53.812 43.964 53.9007 43.7353 54.078 43.558C54.2647 43.3807 54.4933 43.292 54.764 43.292C55.044 43.292 55.2727 43.3807 55.45 43.558C55.6273 43.7353 55.716 43.964 55.716 44.244C55.716 44.524 55.6273 44.7527 55.45 44.93C55.2727 45.1073 55.044 45.196 54.764 45.196ZM60.7433 45.196C60.0526 45.196 59.446 45.0513 58.9233 44.762C58.4006 44.4633 57.9946 44.048 57.7053 43.516C57.416 42.984 57.2713 42.368 57.2713 41.668V41.5C57.2713 40.7907 57.416 40.17 57.7053 39.638C57.9946 39.106 58.396 38.6953 58.9093 38.406C59.4226 38.1073 60.0106 37.958 60.6733 37.958C61.3173 37.958 61.8866 38.098 62.3813 38.378C62.876 38.6487 63.2633 39.0407 63.5433 39.554C63.8233 40.0673 63.9633 40.6693 63.9633 41.36V41.864H58.3773C58.4053 42.6013 58.6433 43.18 59.0913 43.6C59.5393 44.0107 60.0993 44.216 60.7713 44.216C61.3593 44.216 61.812 44.0807 62.1293 43.81C62.4466 43.5393 62.6893 43.2173 62.8573 42.844L63.8093 43.306C63.6693 43.5953 63.4733 43.8847 63.2213 44.174C62.9786 44.4633 62.6566 44.706 62.2553 44.902C61.8633 45.098 61.3593 45.196 60.7433 45.196ZM58.3913 40.954H62.8433C62.806 40.3193 62.5866 39.8247 62.1853 39.47C61.7933 39.1153 61.2893 38.938 60.6733 38.938C60.048 38.938 59.5346 39.1153 59.1333 39.47C58.732 39.8247 58.4846 40.3193 58.3913 40.954ZM65.8925 45V38.154H66.9705V39.316H67.1665C67.3158 38.9893 67.5678 38.6953 67.9225 38.434C68.2865 38.1633 68.8185 38.028 69.5185 38.028C70.0318 38.028 70.4891 38.1353 70.8905 38.35C71.3011 38.5647 71.6278 38.882 71.8705 39.302C72.1131 39.722 72.2345 40.24 72.2345 40.856V45H71.1285V40.94C71.1285 40.2587 70.9558 39.764 70.6105 39.456C70.2745 39.148 69.8171 38.994 69.2385 38.994C68.5758 38.994 68.0345 39.2087 67.6145 39.638C67.2038 40.0673 66.9985 40.7067 66.9985 41.556V45H65.8925ZM76.0093 45L73.5593 38.154H74.7353L76.7933 44.174H76.9893L79.0473 38.154H80.2233L77.7733 45H76.0093Z" fill="#252F3E"/>
<path d="M63.3606 69.861C63.425 69.6034 63.425 69.2815 63.425 68.9596C63.425 68.6376 63.425 68.3801 63.3606 68.0582L65.1634 66.7705C65.3566 66.6417 65.421 66.3841 65.2922 66.191L63.5538 63.2292C63.425 63.0361 63.2318 62.9717 63.0387 63.0361L61.0427 64.0019C60.592 63.6156 60.0769 63.358 59.4975 63.1005L59.3043 60.9114C59.3043 60.7182 59.1112 60.525 58.918 60.525H55.5056C55.3124 60.525 55.1192 60.7182 55.1192 60.9114L54.8617 63.1649C54.2822 63.358 53.8315 63.6799 53.3165 64.0663L51.3205 63.1649C51.1273 63.1005 50.8698 63.1649 50.8054 63.358L49.067 66.3198C48.9382 66.5129 49.0026 66.7705 49.1958 66.8992L50.9986 68.1869C50.9342 68.4445 50.9342 68.7664 50.9342 69.0883C50.9342 69.4103 50.9342 69.6678 50.9986 69.9897L49.1958 71.2774C49.0026 71.4062 48.9382 71.6638 49.067 71.8569L50.8054 74.8187C50.9342 75.0118 51.1273 75.0762 51.3205 75.0118L53.3165 74.1104C53.7672 74.4967 54.2822 74.7543 54.8617 75.0118L55.0549 77.2009C55.0549 77.3941 55.248 77.5872 55.4412 77.5872H58.8536C59.0468 77.5872 59.2399 77.3941 59.2399 77.2009L59.4331 75.0118C60.0126 74.8187 60.4633 74.4967 60.9783 74.1104L62.9743 75.0118C63.1675 75.0762 63.425 75.0118 63.4894 74.8187L65.2278 71.8569C65.3566 71.6638 65.2922 71.4062 65.099 71.2774L63.3606 69.861ZM57.1796 72.1789C55.3768 72.1789 53.9603 70.7624 53.9603 68.9596C53.9603 67.1568 55.3768 65.7403 57.1796 65.7403C58.9824 65.7403 60.3989 67.1568 60.3989 68.9596C60.3989 70.7624 58.9824 72.1789 57.1796 72.1789Z" fill="#E65100"/>
<path d="M73.8555 57.5633C73.9199 57.2414 73.9199 56.9838 73.9199 56.7263C73.9199 56.4687 73.9199 56.2112 73.8555 55.8893L75.4651 54.7303C75.6583 54.6016 75.6583 54.4084 75.5939 54.2152L73.9842 51.4467C73.8555 51.2535 73.6623 51.1891 73.4692 51.3179L71.602 52.1549C71.1513 51.833 70.7006 51.5754 70.1855 51.3179L69.9923 49.3219C70.0567 49.1288 69.9279 49 69.7348 49H66.5799C66.3867 49 66.1936 49.1288 66.1936 49.3219L66.0004 51.3179C65.4853 51.511 65.0346 51.7686 64.5839 52.1549L62.7167 51.3179C62.5236 51.2535 62.3304 51.3179 62.2017 51.4467L60.592 54.2152C60.4632 54.4084 60.5276 54.6016 60.7208 54.7303L62.3304 55.8893C62.3304 56.2112 62.3304 56.4687 62.3304 56.7263C62.3304 56.9838 62.3304 57.2414 62.3948 57.5633L60.7852 58.7222C60.592 58.851 60.592 59.0442 60.6564 59.2373L62.266 62.0059C62.3948 62.1991 62.588 62.2635 62.7811 62.1347L64.6483 61.2977C65.099 61.6196 65.5497 61.8771 66.0648 62.1347L66.258 64.1306C66.258 64.3238 66.4511 64.4526 66.6443 64.4526H69.7992C69.9923 64.4526 70.1855 64.3238 70.1855 64.1306L70.3786 62.1347C70.8937 61.9415 71.3444 61.684 71.7951 61.2977L73.6623 62.1347C73.8555 62.1991 74.0486 62.1347 74.1774 62.0059L75.787 59.2373C75.9158 59.0442 75.8514 58.851 75.6583 58.7222L73.8555 57.5633ZM68.1251 59.9456C66.3223 59.9456 64.9059 58.5291 64.9059 56.7263C64.9059 54.9235 66.3223 53.507 68.1251 53.507C69.9279 53.507 71.3444 54.9235 71.3444 56.7263C71.3444 58.5291 69.9279 59.9456 68.1251 59.9456Z" fill="#FFA000"/>
</svg>
